<mxfile host="app.diagrams.net" modified="2021-12-17T12:04:13.078Z" agent="5.0 (Macintosh; Intel Mac OS X 10_14_6) AppleWebKit/537.36 (KHTML, like Gecko) Chrome/95.0.4638.69 Safari/537.36" etag="54Z9PTMuJg1JSUfrHZiu" version="15.9.6" type="github">
  <diagram id="C5RBs43oDa-KdzZeNtuy" name="Page-1">
    <mxGraphModel dx="1151" dy="600" grid="0" gridSize="10" guides="1" tooltips="1" connect="1" arrows="1" fold="1" page="1" pageScale="1" pageWidth="827" pageHeight="1169" math="0" shadow="0">
      <root>
        <mxCell id="WIyWlLk6GJQsqaUBKTNV-0" />
        <mxCell id="WIyWlLk6GJQsqaUBKTNV-1" parent="WIyWlLk6GJQsqaUBKTNV-0" />
        <mxCell id="4HTtjbrbwFIGZN_ZrTu4-5" value="" style="edgeStyle=orthogonalEdgeStyle;rounded=0;orthogonalLoop=1;jettySize=auto;html=1;fontColor=#000000;" parent="WIyWlLk6GJQsqaUBKTNV-1" source="WIyWlLk6GJQsqaUBKTNV-3" target="4HTtjbrbwFIGZN_ZrTu4-4" edge="1">
          <mxGeometry relative="1" as="geometry" />
        </mxCell>
        <mxCell id="4HTtjbrbwFIGZN_ZrTu4-14" value="" style="edgeStyle=orthogonalEdgeStyle;rounded=0;orthogonalLoop=1;jettySize=auto;html=1;fontColor=#000000;" parent="WIyWlLk6GJQsqaUBKTNV-1" source="WIyWlLk6GJQsqaUBKTNV-3" target="4HTtjbrbwFIGZN_ZrTu4-13" edge="1">
          <mxGeometry relative="1" as="geometry" />
        </mxCell>
        <mxCell id="WIyWlLk6GJQsqaUBKTNV-3" value="&lt;pre style=&quot;font-family: &amp;quot;jetbrains mono&amp;quot; ; font-size: 10.5pt&quot;&gt;&lt;span style=&quot;background-color: rgb(151 , 208 , 119)&quot;&gt;tcp_connect&lt;/span&gt;&lt;/pre&gt;" style="rounded=1;whiteSpace=wrap;html=1;fontSize=12;glass=0;strokeWidth=1;shadow=0;fillColor=#97D077;fontColor=#000000;" parent="WIyWlLk6GJQsqaUBKTNV-1" vertex="1">
          <mxGeometry x="172" y="19" width="120" height="40" as="geometry" />
        </mxCell>
        <mxCell id="s6c2HOBdythOh7mA3Ns_-1" value="" style="edgeStyle=orthogonalEdgeStyle;rounded=0;orthogonalLoop=1;jettySize=auto;html=1;" edge="1" parent="WIyWlLk6GJQsqaUBKTNV-1" source="WIyWlLk6GJQsqaUBKTNV-7" target="s6c2HOBdythOh7mA3Ns_-0">
          <mxGeometry relative="1" as="geometry" />
        </mxCell>
        <mxCell id="WIyWlLk6GJQsqaUBKTNV-7" value="&lt;pre style=&quot;font-family: &amp;quot;jetbrains mono&amp;quot; ; font-size: 10.5pt&quot;&gt;&lt;span style=&quot;background-color: rgb(255 , 102 , 102)&quot;&gt;tcp_transmit_skb&lt;/span&gt;&lt;/pre&gt;" style="rounded=1;whiteSpace=wrap;html=1;fontSize=12;glass=0;strokeWidth=1;shadow=0;fillColor=#FF6666;arcSize=0;fontColor=#000000;" parent="WIyWlLk6GJQsqaUBKTNV-1" vertex="1">
          <mxGeometry x="285" y="840" width="120" height="40" as="geometry" />
        </mxCell>
        <mxCell id="4HTtjbrbwFIGZN_ZrTu4-3" value="" style="edgeStyle=orthogonalEdgeStyle;rounded=0;orthogonalLoop=1;jettySize=auto;html=1;fontColor=#000000;" parent="WIyWlLk6GJQsqaUBKTNV-1" source="WIyWlLk6GJQsqaUBKTNV-11" target="4HTtjbrbwFIGZN_ZrTu4-2" edge="1">
          <mxGeometry relative="1" as="geometry" />
        </mxCell>
        <mxCell id="WIyWlLk6GJQsqaUBKTNV-11" value="&lt;pre style=&quot;font-family: &amp;quot;jetbrains mono&amp;quot; ; font-size: 10.5pt&quot;&gt;&lt;span style=&quot;background-color: rgb(255 , 255 , 204)&quot;&gt;tcp_send_syn_data&lt;/span&gt;&lt;/pre&gt;" style="rounded=1;whiteSpace=wrap;html=1;fontSize=12;glass=0;strokeWidth=1;shadow=0;fillColor=#FFFFCC;strokeColor=#FF6666;fontColor=#000000;" parent="WIyWlLk6GJQsqaUBKTNV-1" vertex="1">
          <mxGeometry x="65" y="306" width="172" height="40" as="geometry" />
        </mxCell>
        <mxCell id="4HTtjbrbwFIGZN_ZrTu4-12" value="" style="edgeStyle=orthogonalEdgeStyle;rounded=0;orthogonalLoop=1;jettySize=auto;html=1;fontColor=#000000;entryX=0;entryY=0.5;entryDx=0;entryDy=0;" parent="WIyWlLk6GJQsqaUBKTNV-1" source="4HTtjbrbwFIGZN_ZrTu4-2" target="WIyWlLk6GJQsqaUBKTNV-7" edge="1">
          <mxGeometry relative="1" as="geometry">
            <mxPoint x="423" y="399" as="targetPoint" />
            <Array as="points">
              <mxPoint x="219" y="431" />
              <mxPoint x="219" y="860" />
            </Array>
          </mxGeometry>
        </mxCell>
        <mxCell id="4HTtjbrbwFIGZN_ZrTu4-28" value="N" style="edgeLabel;html=1;align=center;verticalAlign=middle;resizable=0;points=[];fontColor=#000000;" parent="4HTtjbrbwFIGZN_ZrTu4-12" vertex="1" connectable="0">
          <mxGeometry x="-0.454" y="-3" relative="1" as="geometry">
            <mxPoint as="offset" />
          </mxGeometry>
        </mxCell>
        <mxCell id="4HTtjbrbwFIGZN_ZrTu4-16" value="" style="edgeStyle=orthogonalEdgeStyle;rounded=0;orthogonalLoop=1;jettySize=auto;html=1;fontColor=#000000;" parent="WIyWlLk6GJQsqaUBKTNV-1" source="4HTtjbrbwFIGZN_ZrTu4-2" target="4HTtjbrbwFIGZN_ZrTu4-15" edge="1">
          <mxGeometry relative="1" as="geometry" />
        </mxCell>
        <mxCell id="4HTtjbrbwFIGZN_ZrTu4-27" value="Y" style="edgeLabel;html=1;align=center;verticalAlign=middle;resizable=0;points=[];fontColor=#000000;" parent="4HTtjbrbwFIGZN_ZrTu4-16" vertex="1" connectable="0">
          <mxGeometry x="-0.122" y="-2" relative="1" as="geometry">
            <mxPoint as="offset" />
          </mxGeometry>
        </mxCell>
        <mxCell id="4HTtjbrbwFIGZN_ZrTu4-2" value="cookie found?" style="rhombus;whiteSpace=wrap;html=1;fillColor=#97D077;rounded=1;glass=0;strokeWidth=1;shadow=0;fontColor=#000000;" parent="WIyWlLk6GJQsqaUBKTNV-1" vertex="1">
          <mxGeometry x="111" y="391" width="80" height="80" as="geometry" />
        </mxCell>
        <mxCell id="4HTtjbrbwFIGZN_ZrTu4-9" value="Y" style="edgeStyle=orthogonalEdgeStyle;rounded=0;orthogonalLoop=1;jettySize=auto;html=1;fontColor=#000000;" parent="WIyWlLk6GJQsqaUBKTNV-1" source="4HTtjbrbwFIGZN_ZrTu4-4" target="WIyWlLk6GJQsqaUBKTNV-11" edge="1">
          <mxGeometry relative="1" as="geometry" />
        </mxCell>
        <mxCell id="4HTtjbrbwFIGZN_ZrTu4-10" value="" style="edgeStyle=orthogonalEdgeStyle;rounded=0;orthogonalLoop=1;jettySize=auto;html=1;fontColor=#000000;" parent="WIyWlLk6GJQsqaUBKTNV-1" source="4HTtjbrbwFIGZN_ZrTu4-4" target="WIyWlLk6GJQsqaUBKTNV-7" edge="1">
          <mxGeometry relative="1" as="geometry">
            <Array as="points">
              <mxPoint x="321" y="220" />
            </Array>
          </mxGeometry>
        </mxCell>
        <mxCell id="4HTtjbrbwFIGZN_ZrTu4-26" value="&amp;nbsp; &amp;nbsp;N" style="edgeLabel;html=1;align=center;verticalAlign=middle;resizable=0;points=[];fontColor=#000000;" parent="4HTtjbrbwFIGZN_ZrTu4-10" vertex="1" connectable="0">
          <mxGeometry x="-0.4824" y="2" relative="1" as="geometry">
            <mxPoint as="offset" />
          </mxGeometry>
        </mxCell>
        <mxCell id="4HTtjbrbwFIGZN_ZrTu4-4" value="fast_open?" style="rhombus;whiteSpace=wrap;html=1;fillColor=#97D077;rounded=1;glass=0;strokeWidth=1;shadow=0;fontColor=#000000;" parent="WIyWlLk6GJQsqaUBKTNV-1" vertex="1">
          <mxGeometry x="110" y="180" width="80" height="80" as="geometry" />
        </mxCell>
        <mxCell id="4HTtjbrbwFIGZN_ZrTu4-13" value="&lt;pre style=&quot;font-family: &amp;quot;jetbrains mono&amp;quot; ; font-size: 10.5pt&quot;&gt;&lt;pre style=&quot;font-family: &amp;quot;jetbrains mono&amp;quot; ; font-size: 10.5pt&quot;&gt;&lt;font style=&quot;background-color: rgb(151 , 208 , 119)&quot;&gt;tcp_rbtree_insert(syn)&lt;/font&gt;&lt;/pre&gt;&lt;/pre&gt;" style="rounded=1;whiteSpace=wrap;html=1;fontSize=12;glass=0;strokeWidth=1;shadow=0;fillColor=#97D077;fontColor=#000000;" parent="WIyWlLk6GJQsqaUBKTNV-1" vertex="1">
          <mxGeometry x="259" y="99" width="191" height="40" as="geometry" />
        </mxCell>
        <mxCell id="4HTtjbrbwFIGZN_ZrTu4-18" value="" style="edgeStyle=orthogonalEdgeStyle;rounded=0;orthogonalLoop=1;jettySize=auto;html=1;fontColor=#000000;entryX=1;entryY=0.5;entryDx=0;entryDy=0;" parent="WIyWlLk6GJQsqaUBKTNV-1" source="4HTtjbrbwFIGZN_ZrTu4-15" target="4HTtjbrbwFIGZN_ZrTu4-13" edge="1">
          <mxGeometry relative="1" as="geometry">
            <mxPoint x="290" y="540" as="targetPoint" />
          </mxGeometry>
        </mxCell>
        <mxCell id="4HTtjbrbwFIGZN_ZrTu4-22" value="" style="edgeStyle=orthogonalEdgeStyle;rounded=0;orthogonalLoop=1;jettySize=auto;html=1;fontColor=#000000;" parent="WIyWlLk6GJQsqaUBKTNV-1" source="4HTtjbrbwFIGZN_ZrTu4-15" target="4HTtjbrbwFIGZN_ZrTu4-21" edge="1">
          <mxGeometry relative="1" as="geometry" />
        </mxCell>
        <mxCell id="4HTtjbrbwFIGZN_ZrTu4-15" value="copy syn and data" style="whiteSpace=wrap;html=1;fillColor=#97D077;rounded=1;glass=0;strokeWidth=1;shadow=0;fontColor=#000000;" parent="WIyWlLk6GJQsqaUBKTNV-1" vertex="1">
          <mxGeometry x="90" y="521" width="120" height="42" as="geometry" />
        </mxCell>
        <mxCell id="4HTtjbrbwFIGZN_ZrTu4-24" value="" style="edgeStyle=orthogonalEdgeStyle;rounded=0;orthogonalLoop=1;jettySize=auto;html=1;fontColor=#000000;" parent="WIyWlLk6GJQsqaUBKTNV-1" source="4HTtjbrbwFIGZN_ZrTu4-21" target="4HTtjbrbwFIGZN_ZrTu4-23" edge="1">
          <mxGeometry relative="1" as="geometry" />
        </mxCell>
        <mxCell id="4HTtjbrbwFIGZN_ZrTu4-25" value="Y" style="edgeLabel;html=1;align=center;verticalAlign=middle;resizable=0;points=[];fontColor=#000000;" parent="4HTtjbrbwFIGZN_ZrTu4-24" vertex="1" connectable="0">
          <mxGeometry x="-0.3556" y="4" relative="1" as="geometry">
            <mxPoint as="offset" />
          </mxGeometry>
        </mxCell>
        <mxCell id="4HTtjbrbwFIGZN_ZrTu4-30" value="" style="edgeStyle=orthogonalEdgeStyle;rounded=0;orthogonalLoop=1;jettySize=auto;html=1;fontColor=#000000;" parent="WIyWlLk6GJQsqaUBKTNV-1" source="4HTtjbrbwFIGZN_ZrTu4-21" target="4HTtjbrbwFIGZN_ZrTu4-29" edge="1">
          <mxGeometry relative="1" as="geometry" />
        </mxCell>
        <mxCell id="4HTtjbrbwFIGZN_ZrTu4-31" value="N" style="edgeLabel;html=1;align=center;verticalAlign=middle;resizable=0;points=[];fontColor=#000000;" parent="4HTtjbrbwFIGZN_ZrTu4-30" vertex="1" connectable="0">
          <mxGeometry x="-0.3007" relative="1" as="geometry">
            <mxPoint as="offset" />
          </mxGeometry>
        </mxCell>
        <mxCell id="4HTtjbrbwFIGZN_ZrTu4-21" value="tranmit success" style="rhombus;whiteSpace=wrap;html=1;fillColor=#97D077;rounded=1;glass=0;strokeWidth=1;shadow=0;fontColor=#000000;" parent="WIyWlLk6GJQsqaUBKTNV-1" vertex="1">
          <mxGeometry x="110" y="615" width="80" height="80" as="geometry" />
        </mxCell>
        <mxCell id="4HTtjbrbwFIGZN_ZrTu4-23" value="&lt;pre style=&quot;font-family: &amp;quot;jetbrains mono&amp;quot; ; font-size: 10.5pt&quot;&gt;&lt;pre style=&quot;font-family: &amp;quot;jetbrains mono&amp;quot; ; font-size: 10.5pt&quot;&gt;&lt;span style=&quot;background-color: rgb(151 , 208 , 119)&quot;&gt;&lt;font&gt;tcp_rbtree_insert&lt;/font&gt;&lt;/span&gt;&lt;/pre&gt;&lt;/pre&gt;" style="whiteSpace=wrap;html=1;fillColor=#97D077;rounded=1;glass=0;strokeWidth=1;shadow=0;fontColor=#000000;" parent="WIyWlLk6GJQsqaUBKTNV-1" vertex="1">
          <mxGeometry x="90" y="752" width="120" height="39" as="geometry" />
        </mxCell>
        <mxCell id="4HTtjbrbwFIGZN_ZrTu4-29" value="&lt;pre style=&quot;font-family: &amp;#34;jetbrains mono&amp;#34; ; font-size: 10.5pt&quot;&gt;&lt;span style=&quot;background-color: rgb(255 , 51 , 51)&quot;&gt;__skb_queue_tail（&lt;font&gt;sk_write_queue&lt;/font&gt;）&lt;/span&gt;&lt;/pre&gt;" style="whiteSpace=wrap;html=1;fillColor=#FF3333;rounded=1;glass=0;strokeWidth=1;shadow=0;fontColor=#000000;" parent="WIyWlLk6GJQsqaUBKTNV-1" vertex="1">
          <mxGeometry x="251" y="636.5" width="261" height="37" as="geometry" />
        </mxCell>
        <mxCell id="4HTtjbrbwFIGZN_ZrTu4-36" value="" style="edgeStyle=orthogonalEdgeStyle;rounded=0;orthogonalLoop=1;jettySize=auto;html=1;fontColor=#000000;" parent="WIyWlLk6GJQsqaUBKTNV-1" source="4HTtjbrbwFIGZN_ZrTu4-32" target="4HTtjbrbwFIGZN_ZrTu4-35" edge="1">
          <mxGeometry relative="1" as="geometry" />
        </mxCell>
        <mxCell id="4HTtjbrbwFIGZN_ZrTu4-32" value="&lt;pre style=&quot;font-family: &amp;#34;jetbrains mono&amp;#34; ; font-size: 10.5pt&quot;&gt;&lt;pre style=&quot;font-family: &amp;#34;jetbrains mono&amp;#34; ; font-size: 10.5pt&quot;&gt;&lt;span style=&quot;background-color: rgb(151 , 208 , 119)&quot;&gt;tcp_sendmsg&lt;/span&gt;&lt;/pre&gt;&lt;/pre&gt;" style="rounded=1;whiteSpace=wrap;html=1;fontSize=12;glass=0;strokeWidth=1;shadow=0;fillColor=#97D077;fontColor=#000000;" parent="WIyWlLk6GJQsqaUBKTNV-1" vertex="1">
          <mxGeometry x="986" y="19" width="120" height="40" as="geometry" />
        </mxCell>
        <mxCell id="4HTtjbrbwFIGZN_ZrTu4-38" value="" style="edgeStyle=orthogonalEdgeStyle;rounded=0;orthogonalLoop=1;jettySize=auto;html=1;fontColor=#000000;" parent="WIyWlLk6GJQsqaUBKTNV-1" source="4HTtjbrbwFIGZN_ZrTu4-35" target="4HTtjbrbwFIGZN_ZrTu4-37" edge="1">
          <mxGeometry relative="1" as="geometry" />
        </mxCell>
        <mxCell id="4HTtjbrbwFIGZN_ZrTu4-42" value="" style="edgeStyle=orthogonalEdgeStyle;rounded=0;orthogonalLoop=1;jettySize=auto;html=1;fontColor=#000000;" parent="WIyWlLk6GJQsqaUBKTNV-1" source="4HTtjbrbwFIGZN_ZrTu4-35" target="4HTtjbrbwFIGZN_ZrTu4-41" edge="1">
          <mxGeometry relative="1" as="geometry" />
        </mxCell>
        <mxCell id="4HTtjbrbwFIGZN_ZrTu4-57" value="" style="edgeStyle=orthogonalEdgeStyle;rounded=0;orthogonalLoop=1;jettySize=auto;html=1;fontColor=#000000;" parent="WIyWlLk6GJQsqaUBKTNV-1" source="4HTtjbrbwFIGZN_ZrTu4-35" target="4HTtjbrbwFIGZN_ZrTu4-56" edge="1">
          <mxGeometry relative="1" as="geometry" />
        </mxCell>
        <mxCell id="4HTtjbrbwFIGZN_ZrTu4-35" value="&lt;pre style=&quot;font-family: &amp;#34;jetbrains mono&amp;#34; ; font-size: 10.5pt&quot;&gt;&lt;pre style=&quot;font-family: &amp;#34;jetbrains mono&amp;#34; ; font-size: 10.5pt&quot;&gt;&lt;pre style=&quot;font-family: &amp;#34;jetbrains mono&amp;#34; ; font-size: 10.5pt&quot;&gt;&lt;font style=&quot;background-color: rgb(255 , 51 , 51)&quot;&gt;tcp_sendmsg_locked&lt;/font&gt;&lt;/pre&gt;&lt;/pre&gt;&lt;/pre&gt;" style="rounded=1;whiteSpace=wrap;html=1;fontSize=12;glass=0;strokeWidth=1;shadow=0;fillColor=#FF3333;fontColor=#000000;" parent="WIyWlLk6GJQsqaUBKTNV-1" vertex="1">
          <mxGeometry x="966" y="167" width="160" height="40" as="geometry" />
        </mxCell>
        <mxCell id="4HTtjbrbwFIGZN_ZrTu4-37" value="zero copy？" style="rhombus;whiteSpace=wrap;html=1;fillColor=#97D077;rounded=1;glass=0;strokeWidth=1;shadow=0;fontColor=#000000;" parent="WIyWlLk6GJQsqaUBKTNV-1" vertex="1">
          <mxGeometry x="1211" y="148" width="80" height="80" as="geometry" />
        </mxCell>
        <mxCell id="4HTtjbrbwFIGZN_ZrTu4-44" value="" style="edgeStyle=orthogonalEdgeStyle;rounded=0;orthogonalLoop=1;jettySize=auto;html=1;fontColor=#000000;" parent="WIyWlLk6GJQsqaUBKTNV-1" source="4HTtjbrbwFIGZN_ZrTu4-41" target="4HTtjbrbwFIGZN_ZrTu4-43" edge="1">
          <mxGeometry relative="1" as="geometry" />
        </mxCell>
        <mxCell id="4HTtjbrbwFIGZN_ZrTu4-41" value="fast_open" style="rhombus;whiteSpace=wrap;html=1;fillColor=#97D077;rounded=1;glass=0;strokeWidth=1;shadow=0;fontColor=#000000;" parent="WIyWlLk6GJQsqaUBKTNV-1" vertex="1">
          <mxGeometry x="773" y="147" width="80" height="80" as="geometry" />
        </mxCell>
        <mxCell id="4HTtjbrbwFIGZN_ZrTu4-55" value="" style="edgeStyle=orthogonalEdgeStyle;rounded=0;orthogonalLoop=1;jettySize=auto;html=1;fontColor=#000000;entryX=0.5;entryY=0;entryDx=0;entryDy=0;" parent="WIyWlLk6GJQsqaUBKTNV-1" source="4HTtjbrbwFIGZN_ZrTu4-43" target="4HTtjbrbwFIGZN_ZrTu4-48" edge="1">
          <mxGeometry relative="1" as="geometry">
            <mxPoint x="511.5" y="50" as="targetPoint" />
          </mxGeometry>
        </mxCell>
        <mxCell id="4HTtjbrbwFIGZN_ZrTu4-43" value="&lt;pre style=&quot;font-family: &amp;quot;jetbrains mono&amp;quot; ; font-size: 10.5pt&quot;&gt;&lt;span style=&quot;background-color: rgb(151 , 208 , 119)&quot;&gt;tcp_sendmsg_fastopen&lt;/span&gt;&lt;/pre&gt;" style="whiteSpace=wrap;html=1;fillColor=#97D077;rounded=1;glass=0;strokeWidth=1;shadow=0;fontColor=#000000;" parent="WIyWlLk6GJQsqaUBKTNV-1" vertex="1">
          <mxGeometry x="625" y="30" width="187" height="40" as="geometry" />
        </mxCell>
        <mxCell id="4HTtjbrbwFIGZN_ZrTu4-53" value="" style="edgeStyle=orthogonalEdgeStyle;rounded=0;orthogonalLoop=1;jettySize=auto;html=1;fontColor=#000000;" parent="WIyWlLk6GJQsqaUBKTNV-1" source="4HTtjbrbwFIGZN_ZrTu4-48" edge="1">
          <mxGeometry relative="1" as="geometry">
            <mxPoint x="295" y="39" as="targetPoint" />
            <Array as="points">
              <mxPoint x="524" y="200" />
              <mxPoint x="524" y="39" />
            </Array>
          </mxGeometry>
        </mxCell>
        <mxCell id="4HTtjbrbwFIGZN_ZrTu4-48" value="&lt;pre style=&quot;font-family: &amp;quot;jetbrains mono&amp;quot; ; font-size: 10.5pt&quot;&gt;&lt;pre style=&quot;font-family: &amp;quot;jetbrains mono&amp;quot; ; font-size: 10.5pt&quot;&gt;&lt;span style=&quot;background-color: rgb(151 , 208 , 119)&quot;&gt;__inet_stream_connect&lt;/span&gt;&lt;/pre&gt;&lt;/pre&gt;" style="whiteSpace=wrap;html=1;fillColor=#97D077;rounded=1;glass=0;strokeWidth=1;shadow=0;fontColor=#000000;" parent="WIyWlLk6GJQsqaUBKTNV-1" vertex="1">
          <mxGeometry x="500" y="308" width="187" height="40" as="geometry" />
        </mxCell>
        <mxCell id="4HTtjbrbwFIGZN_ZrTu4-59" value="" style="edgeStyle=orthogonalEdgeStyle;rounded=0;orthogonalLoop=1;jettySize=auto;html=1;fontColor=#000000;" parent="WIyWlLk6GJQsqaUBKTNV-1" source="4HTtjbrbwFIGZN_ZrTu4-56" target="4HTtjbrbwFIGZN_ZrTu4-58" edge="1">
          <mxGeometry relative="1" as="geometry" />
        </mxCell>
        <mxCell id="4HTtjbrbwFIGZN_ZrTu4-60" value="N" style="edgeLabel;html=1;align=center;verticalAlign=middle;resizable=0;points=[];fontColor=#000000;" parent="4HTtjbrbwFIGZN_ZrTu4-59" vertex="1" connectable="0">
          <mxGeometry x="-0.0667" relative="1" as="geometry">
            <mxPoint as="offset" />
          </mxGeometry>
        </mxCell>
        <mxCell id="4HTtjbrbwFIGZN_ZrTu4-63" value="" style="edgeStyle=orthogonalEdgeStyle;rounded=0;orthogonalLoop=1;jettySize=auto;html=1;fontColor=#000000;entryX=0.5;entryY=0;entryDx=0;entryDy=0;" parent="WIyWlLk6GJQsqaUBKTNV-1" source="4HTtjbrbwFIGZN_ZrTu4-56" target="4HTtjbrbwFIGZN_ZrTu4-65" edge="1">
          <mxGeometry relative="1" as="geometry">
            <mxPoint x="1046" y="437" as="targetPoint" />
          </mxGeometry>
        </mxCell>
        <mxCell id="4HTtjbrbwFIGZN_ZrTu4-64" value="Y" style="edgeLabel;html=1;align=center;verticalAlign=middle;resizable=0;points=[];fontColor=#000000;" parent="4HTtjbrbwFIGZN_ZrTu4-63" vertex="1" connectable="0">
          <mxGeometry x="-0.2222" y="-3" relative="1" as="geometry">
            <mxPoint as="offset" />
          </mxGeometry>
        </mxCell>
        <mxCell id="4HTtjbrbwFIGZN_ZrTu4-56" value="establish？" style="rhombus;whiteSpace=wrap;html=1;fillColor=#97D077;fontColor=#000000;rounded=1;glass=0;strokeWidth=1;shadow=0;" parent="WIyWlLk6GJQsqaUBKTNV-1" vertex="1">
          <mxGeometry x="1006" y="267" width="80" height="80" as="geometry" />
        </mxCell>
        <mxCell id="4HTtjbrbwFIGZN_ZrTu4-58" value="&lt;pre style=&quot;font-family: &amp;#34;jetbrains mono&amp;#34; ; font-size: 10.5pt&quot;&gt;&lt;span style=&quot;background-color: rgb(151 , 208 , 119)&quot;&gt;sk_stream_wait_connect&lt;/span&gt;&lt;/pre&gt;" style="whiteSpace=wrap;html=1;fillColor=#97D077;fontColor=#000000;rounded=1;glass=0;strokeWidth=1;shadow=0;" parent="WIyWlLk6GJQsqaUBKTNV-1" vertex="1">
          <mxGeometry x="1149" y="290" width="225" height="37" as="geometry" />
        </mxCell>
        <mxCell id="4HTtjbrbwFIGZN_ZrTu4-67" value="" style="edgeStyle=orthogonalEdgeStyle;rounded=0;orthogonalLoop=1;jettySize=auto;html=1;fontColor=#000000;" parent="WIyWlLk6GJQsqaUBKTNV-1" source="4HTtjbrbwFIGZN_ZrTu4-65" target="4HTtjbrbwFIGZN_ZrTu4-66" edge="1">
          <mxGeometry relative="1" as="geometry" />
        </mxCell>
        <mxCell id="4HTtjbrbwFIGZN_ZrTu4-70" value="N" style="edgeLabel;html=1;align=center;verticalAlign=middle;resizable=0;points=[];fontColor=#000000;" parent="4HTtjbrbwFIGZN_ZrTu4-67" vertex="1" connectable="0">
          <mxGeometry y="2" relative="1" as="geometry">
            <mxPoint as="offset" />
          </mxGeometry>
        </mxCell>
        <mxCell id="4HTtjbrbwFIGZN_ZrTu4-72" value="" style="edgeStyle=orthogonalEdgeStyle;rounded=0;orthogonalLoop=1;jettySize=auto;html=1;fontColor=#000000;" parent="WIyWlLk6GJQsqaUBKTNV-1" source="4HTtjbrbwFIGZN_ZrTu4-65" target="4HTtjbrbwFIGZN_ZrTu4-71" edge="1">
          <mxGeometry relative="1" as="geometry" />
        </mxCell>
        <mxCell id="4HTtjbrbwFIGZN_ZrTu4-65" value="&lt;pre style=&quot;font-family: &amp;#34;jetbrains mono&amp;#34; ; font-size: 10.5pt&quot;&gt;&lt;span style=&quot;background-color: rgb(151 , 208 , 119)&quot;&gt;__sk_stream_memory_free&lt;/span&gt;&lt;/pre&gt;" style="rhombus;whiteSpace=wrap;html=1;fillColor=#97D077;fontColor=#000000;rounded=1;glass=0;strokeWidth=1;shadow=0;" parent="WIyWlLk6GJQsqaUBKTNV-1" vertex="1">
          <mxGeometry x="893" y="397" width="306" height="40" as="geometry" />
        </mxCell>
        <mxCell id="4HTtjbrbwFIGZN_ZrTu4-66" value="stop！" style="ellipse;whiteSpace=wrap;html=1;fillColor=#97D077;fontColor=#000000;rounded=1;glass=0;strokeWidth=1;shadow=0;" parent="WIyWlLk6GJQsqaUBKTNV-1" vertex="1">
          <mxGeometry x="736" y="391" width="120" height="60" as="geometry" />
        </mxCell>
        <mxCell id="4HTtjbrbwFIGZN_ZrTu4-74" value="" style="edgeStyle=orthogonalEdgeStyle;rounded=0;orthogonalLoop=1;jettySize=auto;html=1;fontColor=#000000;" parent="WIyWlLk6GJQsqaUBKTNV-1" source="4HTtjbrbwFIGZN_ZrTu4-71" target="4HTtjbrbwFIGZN_ZrTu4-73" edge="1">
          <mxGeometry relative="1" as="geometry" />
        </mxCell>
        <mxCell id="4HTtjbrbwFIGZN_ZrTu4-71" value="&lt;pre style=&quot;font-family: &amp;#34;jetbrains mono&amp;#34; ; font-size: 10.5pt&quot;&gt;&lt;span style=&quot;background-color: rgb(151 , 208 , 119)&quot;&gt;sk_stream_alloc_skb&lt;/span&gt;&lt;/pre&gt;" style="whiteSpace=wrap;html=1;fillColor=#97D077;fontColor=#000000;rounded=1;glass=0;strokeWidth=1;shadow=0;" parent="WIyWlLk6GJQsqaUBKTNV-1" vertex="1">
          <mxGeometry x="946.5" y="504" width="207" height="33" as="geometry" />
        </mxCell>
        <mxCell id="4HTtjbrbwFIGZN_ZrTu4-78" value="" style="edgeStyle=orthogonalEdgeStyle;rounded=0;orthogonalLoop=1;jettySize=auto;html=1;fontColor=#000000;entryX=1;entryY=0.5;entryDx=0;entryDy=0;" parent="WIyWlLk6GJQsqaUBKTNV-1" source="4HTtjbrbwFIGZN_ZrTu4-73" target="4HTtjbrbwFIGZN_ZrTu4-29" edge="1">
          <mxGeometry relative="1" as="geometry">
            <mxPoint x="866.5" y="666.5" as="targetPoint" />
          </mxGeometry>
        </mxCell>
        <mxCell id="ysQo--iKETitPfSyYoSc-1" value="" style="edgeStyle=orthogonalEdgeStyle;rounded=0;orthogonalLoop=1;jettySize=auto;html=1;" parent="WIyWlLk6GJQsqaUBKTNV-1" source="4HTtjbrbwFIGZN_ZrTu4-73" target="ysQo--iKETitPfSyYoSc-0" edge="1">
          <mxGeometry relative="1" as="geometry" />
        </mxCell>
        <mxCell id="4HTtjbrbwFIGZN_ZrTu4-73" value="&lt;pre style=&quot;font-family: &amp;#34;jetbrains mono&amp;#34; ; font-size: 10.5pt&quot;&gt;&lt;pre style=&quot;font-family: &amp;#34;jetbrains mono&amp;#34; ; font-size: 10.5pt&quot;&gt;&lt;span style=&quot;background-color: rgb(151 , 208 , 119)&quot;&gt;skb_entail&lt;/span&gt;&lt;/pre&gt;&lt;/pre&gt;" style="whiteSpace=wrap;html=1;fillColor=#97D077;fontColor=#000000;rounded=1;glass=0;strokeWidth=1;shadow=0;" parent="WIyWlLk6GJQsqaUBKTNV-1" vertex="1">
          <mxGeometry x="946.5" y="591" width="207" height="33" as="geometry" />
        </mxCell>
        <mxCell id="ysQo--iKETitPfSyYoSc-3" value="" style="edgeStyle=orthogonalEdgeStyle;rounded=0;orthogonalLoop=1;jettySize=auto;html=1;" parent="WIyWlLk6GJQsqaUBKTNV-1" source="ysQo--iKETitPfSyYoSc-0" target="ysQo--iKETitPfSyYoSc-2" edge="1">
          <mxGeometry relative="1" as="geometry" />
        </mxCell>
        <mxCell id="ysQo--iKETitPfSyYoSc-0" value="&lt;pre style=&quot;font-family: &amp;#34;jetbrains mono&amp;#34; ; font-size: 10.5pt&quot;&gt;&lt;pre style=&quot;font-family: &amp;#34;jetbrains mono&amp;#34; ; font-size: 10.5pt&quot;&gt;&lt;pre style=&quot;font-family: &amp;#34;jetbrains mono&amp;#34; ; font-size: 10.5pt&quot;&gt;&lt;pre style=&quot;font-family: &amp;#34;jetbrains mono&amp;#34; ; font-size: 10.5pt&quot;&gt;&lt;span style=&quot;background-color: rgb(151 , 208 , 119)&quot;&gt;tcp_push_one&lt;/span&gt;&lt;/pre&gt;&lt;/pre&gt;&lt;/pre&gt;&lt;/pre&gt;" style="whiteSpace=wrap;html=1;fillColor=#97D077;fontColor=#000000;rounded=1;glass=0;strokeWidth=1;shadow=0;" parent="WIyWlLk6GJQsqaUBKTNV-1" vertex="1">
          <mxGeometry x="947.25" y="671" width="207" height="33" as="geometry" />
        </mxCell>
        <mxCell id="ysQo--iKETitPfSyYoSc-5" value="" style="edgeStyle=orthogonalEdgeStyle;rounded=0;orthogonalLoop=1;jettySize=auto;html=1;exitX=0;exitY=0.5;exitDx=0;exitDy=0;entryX=1;entryY=0.5;entryDx=0;entryDy=0;" parent="WIyWlLk6GJQsqaUBKTNV-1" edge="1">
          <mxGeometry relative="1" as="geometry">
            <mxPoint x="403.25" y="857.75" as="targetPoint" />
            <Array as="points">
              <mxPoint x="617.25" y="1108.25" />
              <mxPoint x="617.25" y="858.25" />
              <mxPoint x="414.25" y="858.25" />
            </Array>
            <mxPoint x="1033.75" y="1108.25" as="sourcePoint" />
          </mxGeometry>
        </mxCell>
        <mxCell id="ISjiwfYIyI4ilbFvpTHP-13" value="Y" style="edgeLabel;html=1;align=center;verticalAlign=middle;resizable=0;points=[];fontColor=#000000;" parent="ysQo--iKETitPfSyYoSc-5" vertex="1" connectable="0">
          <mxGeometry x="-0.7766" relative="1" as="geometry">
            <mxPoint as="offset" />
          </mxGeometry>
        </mxCell>
        <mxCell id="ISjiwfYIyI4ilbFvpTHP-1" value="" style="edgeStyle=orthogonalEdgeStyle;rounded=0;orthogonalLoop=1;jettySize=auto;html=1;exitX=1;exitY=0.5;exitDx=0;exitDy=0;" parent="WIyWlLk6GJQsqaUBKTNV-1" source="ISjiwfYIyI4ilbFvpTHP-2" target="ISjiwfYIyI4ilbFvpTHP-0" edge="1">
          <mxGeometry relative="1" as="geometry" />
        </mxCell>
        <mxCell id="ISjiwfYIyI4ilbFvpTHP-3" value="" style="edgeStyle=orthogonalEdgeStyle;rounded=0;orthogonalLoop=1;jettySize=auto;html=1;exitX=0.5;exitY=1;exitDx=0;exitDy=0;" parent="WIyWlLk6GJQsqaUBKTNV-1" source="ISjiwfYIyI4ilbFvpTHP-5" target="ISjiwfYIyI4ilbFvpTHP-2" edge="1">
          <mxGeometry relative="1" as="geometry" />
        </mxCell>
        <mxCell id="ISjiwfYIyI4ilbFvpTHP-10" value="Y" style="edgeLabel;html=1;align=center;verticalAlign=middle;resizable=0;points=[];fontColor=#000000;" parent="ISjiwfYIyI4ilbFvpTHP-3" vertex="1" connectable="0">
          <mxGeometry x="-0.4086" y="2" relative="1" as="geometry">
            <mxPoint as="offset" />
          </mxGeometry>
        </mxCell>
        <mxCell id="ISjiwfYIyI4ilbFvpTHP-20" value="" style="edgeStyle=orthogonalEdgeStyle;rounded=0;orthogonalLoop=1;jettySize=auto;html=1;fontColor=#000000;" parent="WIyWlLk6GJQsqaUBKTNV-1" source="ysQo--iKETitPfSyYoSc-2" target="ISjiwfYIyI4ilbFvpTHP-19" edge="1">
          <mxGeometry relative="1" as="geometry" />
        </mxCell>
        <mxCell id="ysQo--iKETitPfSyYoSc-2" value="&lt;pre style=&quot;font-family: &amp;#34;jetbrains mono&amp;#34; ; font-size: 10.5pt&quot;&gt;&lt;pre style=&quot;font-family: &amp;#34;jetbrains mono&amp;#34; ; font-size: 10.5pt&quot;&gt;&lt;pre style=&quot;font-family: &amp;#34;jetbrains mono&amp;#34; ; font-size: 10.5pt&quot;&gt;&lt;pre style=&quot;font-family: &amp;#34;jetbrains mono&amp;#34; ; font-size: 10.5pt&quot;&gt;&lt;pre style=&quot;font-family: &amp;#34;jetbrains mono&amp;#34; ; font-size: 10.5pt&quot;&gt;&lt;span style=&quot;background-color: rgb(151 , 208 , 119)&quot;&gt;tcp_write_xmit&lt;/span&gt;&lt;/pre&gt;&lt;/pre&gt;&lt;/pre&gt;&lt;/pre&gt;&lt;/pre&gt;" style="whiteSpace=wrap;html=1;fillColor=#97D077;fontColor=#000000;rounded=1;glass=0;strokeWidth=1;shadow=0;" parent="WIyWlLk6GJQsqaUBKTNV-1" vertex="1">
          <mxGeometry x="948.75" y="749" width="205.5" height="33" as="geometry" />
        </mxCell>
        <mxCell id="ISjiwfYIyI4ilbFvpTHP-0" value="&lt;pre style=&quot;font-family: &amp;#34;jetbrains mono&amp;#34; ; font-size: 10.5pt&quot;&gt;&lt;pre style=&quot;font-family: &amp;#34;jetbrains mono&amp;#34; ; font-size: 10.5pt&quot;&gt;&lt;pre style=&quot;font-family: &amp;#34;jetbrains mono&amp;#34; ; font-size: 10.5pt&quot;&gt;&lt;pre style=&quot;font-family: &amp;#34;jetbrains mono&amp;#34; ; font-size: 10.5pt&quot;&gt;&lt;pre style=&quot;font-family: &amp;#34;jetbrains mono&amp;#34; ; font-size: 10.5pt&quot;&gt;&lt;pre style=&quot;font-family: &amp;#34;jetbrains mono&amp;#34; ; font-size: 10.5pt&quot;&gt;&lt;span style=&quot;background-color: rgb(255 , 102 , 102)&quot;&gt;tcp_nagle_test&lt;/span&gt;&lt;/pre&gt;&lt;/pre&gt;&lt;/pre&gt;&lt;/pre&gt;&lt;/pre&gt;&lt;/pre&gt;" style="whiteSpace=wrap;html=1;fillColor=#FF6666;fontColor=#000000;rounded=1;glass=0;strokeWidth=1;shadow=0;" parent="WIyWlLk6GJQsqaUBKTNV-1" vertex="1">
          <mxGeometry x="1203" y="932.5" width="205.5" height="33" as="geometry" />
        </mxCell>
        <mxCell id="ISjiwfYIyI4ilbFvpTHP-15" value="" style="edgeStyle=orthogonalEdgeStyle;rounded=0;orthogonalLoop=1;jettySize=auto;html=1;fontColor=#000000;" parent="WIyWlLk6GJQsqaUBKTNV-1" source="ISjiwfYIyI4ilbFvpTHP-2" target="ISjiwfYIyI4ilbFvpTHP-14" edge="1">
          <mxGeometry relative="1" as="geometry" />
        </mxCell>
        <mxCell id="ISjiwfYIyI4ilbFvpTHP-18" value="Y" style="edgeLabel;html=1;align=center;verticalAlign=middle;resizable=0;points=[];fontColor=#000000;" parent="ISjiwfYIyI4ilbFvpTHP-15" vertex="1" connectable="0">
          <mxGeometry x="-0.4872" y="1" relative="1" as="geometry">
            <mxPoint as="offset" />
          </mxGeometry>
        </mxCell>
        <mxCell id="ISjiwfYIyI4ilbFvpTHP-2" value="分片大小足够" style="rhombus;whiteSpace=wrap;html=1;fillColor=#97D077;fontColor=#000000;rounded=1;glass=0;strokeWidth=1;shadow=0;" parent="WIyWlLk6GJQsqaUBKTNV-1" vertex="1">
          <mxGeometry x="1010.75" y="1070" width="80" height="80" as="geometry" />
        </mxCell>
        <mxCell id="ISjiwfYIyI4ilbFvpTHP-9" value="" style="edgeStyle=orthogonalEdgeStyle;rounded=0;orthogonalLoop=1;jettySize=auto;html=1;fontColor=#000000;" parent="WIyWlLk6GJQsqaUBKTNV-1" source="ISjiwfYIyI4ilbFvpTHP-5" target="ISjiwfYIyI4ilbFvpTHP-7" edge="1">
          <mxGeometry relative="1" as="geometry">
            <mxPoint x="873" y="951" as="targetPoint" />
          </mxGeometry>
        </mxCell>
        <mxCell id="ISjiwfYIyI4ilbFvpTHP-5" value="发送窗口足够" style="rhombus;whiteSpace=wrap;html=1;fillColor=#97D077;fontColor=#000000;rounded=1;glass=0;strokeWidth=1;shadow=0;" parent="WIyWlLk6GJQsqaUBKTNV-1" vertex="1">
          <mxGeometry x="1011.5" y="943" width="80" height="80" as="geometry" />
        </mxCell>
        <mxCell id="ISjiwfYIyI4ilbFvpTHP-7" value="&lt;pre style=&quot;font-family: &amp;#34;jetbrains mono&amp;#34; ; font-size: 10.5pt&quot;&gt;&lt;pre style=&quot;font-family: &amp;#34;jetbrains mono&amp;#34; ; font-size: 10.5pt&quot;&gt;&lt;pre style=&quot;font-family: &amp;#34;jetbrains mono&amp;#34; ; font-size: 10.5pt&quot;&gt;&lt;pre style=&quot;font-family: &amp;#34;jetbrains mono&amp;#34; ; font-size: 10.5pt&quot;&gt;&lt;pre style=&quot;font-family: &amp;#34;jetbrains mono&amp;#34; ; font-size: 10.5pt&quot;&gt;&lt;pre style=&quot;font-family: &amp;#34;jetbrains mono&amp;#34; ; font-size: 10.5pt&quot;&gt;&lt;pre style=&quot;font-family: &amp;#34;jetbrains mono&amp;#34; ; font-size: 10.5pt&quot;&gt;&lt;span style=&quot;background-color: rgb(255 , 102 , 102)&quot;&gt;tcp_snd_wnd_test&lt;/span&gt;&lt;/pre&gt;&lt;/pre&gt;&lt;/pre&gt;&lt;/pre&gt;&lt;/pre&gt;&lt;/pre&gt;&lt;/pre&gt;" style="whiteSpace=wrap;html=1;fillColor=#FF6666;fontColor=#000000;rounded=1;glass=0;strokeWidth=1;shadow=0;" parent="WIyWlLk6GJQsqaUBKTNV-1" vertex="1">
          <mxGeometry x="720" y="966.5" width="205.5" height="33" as="geometry" />
        </mxCell>
        <mxCell id="ISjiwfYIyI4ilbFvpTHP-17" value="" style="edgeStyle=orthogonalEdgeStyle;rounded=0;orthogonalLoop=1;jettySize=auto;html=1;fontColor=#000000;" parent="WIyWlLk6GJQsqaUBKTNV-1" source="ISjiwfYIyI4ilbFvpTHP-14" target="ISjiwfYIyI4ilbFvpTHP-16" edge="1">
          <mxGeometry relative="1" as="geometry" />
        </mxCell>
        <mxCell id="ISjiwfYIyI4ilbFvpTHP-14" value="满足tsq" style="rhombus;whiteSpace=wrap;html=1;fillColor=#97D077;fontColor=#000000;rounded=1;glass=0;strokeWidth=1;shadow=0;" parent="WIyWlLk6GJQsqaUBKTNV-1" vertex="1">
          <mxGeometry x="1011.5" y="1197" width="80" height="80" as="geometry" />
        </mxCell>
        <mxCell id="ISjiwfYIyI4ilbFvpTHP-16" value="&lt;pre style=&quot;font-family: &amp;#34;jetbrains mono&amp;#34; ; font-size: 10.5pt&quot;&gt;&lt;span style=&quot;background-color: rgb(255 , 102 , 102)&quot;&gt;tcp_small_queue_check&lt;/span&gt;&lt;/pre&gt;" style="whiteSpace=wrap;html=1;fillColor=#FF6666;fontColor=#000000;rounded=1;glass=0;strokeWidth=1;shadow=0;" parent="WIyWlLk6GJQsqaUBKTNV-1" vertex="1">
          <mxGeometry x="1233" y="1159" width="191" height="34" as="geometry" />
        </mxCell>
        <mxCell id="ISjiwfYIyI4ilbFvpTHP-25" value="" style="edgeStyle=orthogonalEdgeStyle;rounded=0;orthogonalLoop=1;jettySize=auto;html=1;fontColor=#000000;entryX=0.5;entryY=0;entryDx=0;entryDy=0;" parent="WIyWlLk6GJQsqaUBKTNV-1" source="ISjiwfYIyI4ilbFvpTHP-19" target="ISjiwfYIyI4ilbFvpTHP-5" edge="1">
          <mxGeometry relative="1" as="geometry">
            <mxPoint x="1026" y="1053" as="targetPoint" />
          </mxGeometry>
        </mxCell>
        <mxCell id="ISjiwfYIyI4ilbFvpTHP-27" value="" style="edgeStyle=orthogonalEdgeStyle;rounded=0;orthogonalLoop=1;jettySize=auto;html=1;fontColor=#000000;" parent="WIyWlLk6GJQsqaUBKTNV-1" source="ISjiwfYIyI4ilbFvpTHP-19" target="ISjiwfYIyI4ilbFvpTHP-26" edge="1">
          <mxGeometry relative="1" as="geometry" />
        </mxCell>
        <mxCell id="ISjiwfYIyI4ilbFvpTHP-19" value="是否需要分片" style="rhombus;whiteSpace=wrap;html=1;fillColor=#97D077;fontColor=#000000;rounded=1;glass=0;strokeWidth=1;shadow=0;" parent="WIyWlLk6GJQsqaUBKTNV-1" vertex="1">
          <mxGeometry x="1011.5" y="820" width="80" height="80" as="geometry" />
        </mxCell>
        <mxCell id="ISjiwfYIyI4ilbFvpTHP-26" value="&lt;pre style=&quot;font-family: &amp;#34;jetbrains mono&amp;#34; ; font-size: 10.5pt&quot;&gt;&lt;span style=&quot;background-color: rgb(255 , 102 , 102)&quot;&gt;tso_fragment&lt;/span&gt;&lt;/pre&gt;" style="whiteSpace=wrap;html=1;fillColor=#FF6666;fontColor=#000000;rounded=1;glass=0;strokeWidth=1;shadow=0;" parent="WIyWlLk6GJQsqaUBKTNV-1" vertex="1">
          <mxGeometry x="748" y="838" width="120" height="40.5" as="geometry" />
        </mxCell>
        <mxCell id="s6c2HOBdythOh7mA3Ns_-3" value="" style="edgeStyle=orthogonalEdgeStyle;rounded=0;orthogonalLoop=1;jettySize=auto;html=1;fontColor=#000000;" edge="1" parent="WIyWlLk6GJQsqaUBKTNV-1" source="s6c2HOBdythOh7mA3Ns_-0" target="s6c2HOBdythOh7mA3Ns_-2">
          <mxGeometry relative="1" as="geometry" />
        </mxCell>
        <mxCell id="s6c2HOBdythOh7mA3Ns_-0" value="&lt;pre style=&quot;font-family: &amp;#34;jetbrains mono&amp;#34; ; font-size: 10.5pt&quot;&gt;&lt;pre style=&quot;font-family: &amp;#34;jetbrains mono&amp;#34; ; font-size: 10.5pt&quot;&gt;&lt;span style=&quot;background-color: rgb(151 , 208 , 119)&quot;&gt;sk_wmem_alloc+&lt;/span&gt;&lt;/pre&gt;&lt;/pre&gt;" style="rounded=1;whiteSpace=wrap;html=1;fontSize=12;glass=0;strokeWidth=1;shadow=0;fillColor=#97D077;arcSize=0;fontColor=#000000;" vertex="1" parent="WIyWlLk6GJQsqaUBKTNV-1">
          <mxGeometry x="285" y="960" width="120" height="40" as="geometry" />
        </mxCell>
        <mxCell id="s6c2HOBdythOh7mA3Ns_-2" value="&lt;pre style=&quot;font-family: &amp;#34;jetbrains mono&amp;#34; ; font-size: 10.5pt&quot;&gt;&lt;pre style=&quot;font-family: &amp;#34;jetbrains mono&amp;#34; ; font-size: 10.5pt&quot;&gt;&lt;pre style=&quot;font-family: &amp;#34;jetbrains mono&amp;#34; ; font-size: 10.5pt&quot;&gt;&lt;font style=&quot;background-color: rgb(255 , 255 , 204)&quot;&gt;icsk_af_ops-&amp;gt;queue_xmit&lt;/font&gt;&lt;/pre&gt;&lt;/pre&gt;&lt;/pre&gt;" style="rounded=1;whiteSpace=wrap;html=1;fontSize=12;glass=0;strokeWidth=1;shadow=0;fillColor=#FFFFCC;arcSize=0;fontColor=#000000;" vertex="1" parent="WIyWlLk6GJQsqaUBKTNV-1">
          <mxGeometry x="253" y="1044" width="184" height="40" as="geometry" />
        </mxCell>
      </root>
    </mxGraphModel>
  </diagram>
</mxfile>
